#!OML:ASF F:\VICON\USERDATA\INSTALL\SteveWalk\SteveWalk.ASF
:FULLY-SPECIFIED
:DEGREES

254
root -0.185554 16.3306 9.39413 16.8972 2.29593 -1.51739
lowerback -14.3139 -0.666535 3.5588
upperback -5.09654 -1.47832 3.07553
thorax 2.63244 -0.735716 0.96894
lowerneck -5.07774 0.920757 0.867482
upperneck 7.81249 1.49923 -3.9778
head 3.47019 0.609183 -1.39297
rclavicle 2.25496e-014 -3.49861e-014
rhumerus -80.8605 -46.2413 -13.8951
rradius 11.2008
rwrist 51.6558
rhand -15.1366 -35.8675
rfingers 7.12502
rthumb 11.033 -65.5575
lclavicle 2.25496e-014 -3.49861e-014
lhumerus -30.8764 0.20209 86.5344
lradius 47.3384
lwrist 11.563
lhand -21.4374 -19.2514
lfingers 7.12502
lthumb 4.95201 10.6708
rfemur -39.3996 -0.867197 25.149
rtibia 39.0343
rfoot -17.9045 2.45675
rtoes -17.0691
lfemur -27.9602 2.05394 -18.3776
ltibia 73.5336
lfoot 7.45303 -2.38354
ltoes 3.17848
255
root -0.171081 16.3758 9.59299 16.965 2.95437 -1.59865
lowerback -14.4411 -0.726468 3.91412
upperback -5.12194 -1.60817 3.00801
thorax 2.66002 -0.801806 0.676061
lowerneck -5.05458 0.754047 0.686135
upperneck 8.00451 1.27742 -3.75251
head 3.5207 0.500993 -1.29746
rclavicle -1.72197e-014 7.15625e-015
rhumerus -78.3892 -47.363 -16.8395
rradius 11.1166
rwrist 50.9614
rhand -15.7315 -35.1241
rfingers 7.12502
rthumb 10.4591 -64.8439
lclavicle -1.72197e-014 7.15625e-015
lhumerus -31.3688 0.481307 86.6988
lradius 45.4817
lwrist 11.2204
lhand -21.525 -19.4488
lfingers 7.12502
lthumb 4.86739 10.4753
rfemur -38.452 -1.52692 25.3218
rtibia 38.7785
rfoot -18.5781 2.72555
rtoes -15.4263
lfemur -29.4183 1.73538 -18.3179
ltibia 74.0706
lfoot 5.71221 -1.64835
ltoes 0.719616
256
root -0.185424 16.3681 9.79172 17.0439 2.72525 -1.57269
lowerback -14.7409 -0.617478 3.60296
upperback -5.10072 -1.43846 2.97201
thorax 2.85353 -0.713207 0.83689
lowerneck -4.60431 0.59318 0.515443
upperneck 7.9028 1.05875 -3.62352
head 3.3889 0.39801 -1.23209
rclavicle -1.74682e-014 1.03368e-014
rhumerus -74.4884 -47.9145 -21.6054
rradius 11.1321
rwrist 49.2572
rhand -16.4724 -33.9909
rfingers 7.12502
rthumb 9.74438 -63.7455
lclavicle -1.74682e-014 1.03368e-014
lhumerus -31.9846 0.909387 86.8455
lradius 43.5189
lwrist 10.5722
lhand -21.6426 -19.8367
lfingers 7.12502
lthumb 4.75388 10.09
rfemur -37.745 -0.790598 25.1036
rtibia 38.6223
rfoot -18.7854 2.49363
rtoes -14.5251
lfemur -30.967 2.29041 -18.4638
ltibia 74.5368
lfoot 4.58632 -0.741534
ltoes -0.273313
257
root -0.196398 16.3785 9.99632 16.9103 2.69054 -1.47215
lowerback -14.7197 -0.596251 3.28122
upperback -5.13746 -1.36022 2.92611
thorax 2.81169 -0.673651 0.983353
lowerneck -4.14446 0.482501 0.495947
upperneck 7.97041 0.914213 -3.66162
head 3.32042 0.327974 -1.24657
rclavicle -1.31679e-014 -6.36111e-015
rhumerus -67.9783 -46.7829 -30.099
rradius 11.499
rwrist 44.7873
rhand -16.8211 -33.9374
rfingers 7.12502
rthumb 9.40792 -63.7074
lclavicle -1.31679e-014 -6.36111e-015
lhumerus -32.6804 1.40983 86.9608
lradius 41.273
lwrist 9.78156
lhand -21.7503 -20.348
lfingers 7.12502
lthumb 4.64991 9.58101
rfemur -36.6265 -0.534455 24.9653
rtibia 38.3332
rfoot -19.1707 2.0808
rtoes -14.7981
lfemur -32.3731 2.59666 -18.6532
ltibia 74.7239
lfoot 3.7324 0.384978
ltoes 0.0439431
258
root -0.203147 16.387 10.2054 16.7129 2.84805 -1.37095
lowerback -14.5727 -0.631256 3.05117
upperback -5.1342 -1.36393 2.86496
thorax 2.74082 -0.675247 1.0497
lowerneck -4.20834 0.414706 0.568477
upperneck 8.27471 0.835665 -3.75438
head 3.43793 0.283825 -1.29661
rclavicle 8.88047e-015 -8.74653e-015
rhumerus -62.251 -45.4552 -37.44
rradius 11.8309
rwrist 40.9253
rhand -16.856 -34.2684
rfingers 7.12502
rthumb 9.37429 -64.0399
lclavicle 8.88047e-015 -8.74653e-015
lhumerus -33.3034 1.86797 86.9918
lradius 39.1131
lwrist 9.0266
lhand -21.9109 -20.2067
lfingers 7.12502
lthumb 4.49478 9.72565
rfemur -35.4025 -0.688718 24.9567
rtibia 38.0994
rfoot -19.6675 1.72517
rtoes -14.3875
lfemur -33.5642 2.70929 -18.8357
ltibia 74.6896
lfoot 1.37111 1.1138
ltoes -2.13069
259
root -0.201048 16.4022 10.42 16.5682 3.13031 -1.57255
lowerback -14.6211 -0.613366 3.27418
upperback -5.07557 -1.37516 2.85057
thorax 2.82219 -0.680526 0.906254
lowerneck -4.3748 0.412348 0.577089
upperneck 8.57299 0.841869 -3.74804
head 3.57428 0.282693 -1.29945
rclavicle -6.11573e-015 3.65764e-014
rhumerus -56.9141 -43.9275 -44.0678
rradius 12.184
rwrist 37.2908
rhand -17.0524 -34.4935
rfingers 7.12502
rthumb 9.18474 -64.2735
lclavicle -6.11573e-015 3.65764e-014
lhumerus -33.7714 2.32437 86.9656
lradius 36.8918
lwrist 8.22779
lhand -21.9969 -18.9533
lfingers 7.12502
lthumb 4.41174 10.9808
rfemur -34.1785 -1.11326 25.321
rtibia 37.7767
rfoot -20.3045 1.64269
rtoes -13.7073
lfemur -34.7756 2.77444 -18.7133
ltibia 74.4168
lfoot -1.45753 1.73789
ltoes -3.70055
260
root -0.197228 16.4132 10.6265 16.4784 3.3169 -1.27412
lowerback -14.8158 -0.61959 2.99298
upperback -4.93508 -1.35186 2.6758
thorax 3.0778 -0.664986 0.881904
lowerneck -4.3943 0.408196 0.545187
upperneck 8.69535 0.833015 -3.63705
head 3.61907 0.280425 -1.25849
rclavicle -7.37367e-015 2.14687e-014
rhumerus -51.9556 -42.2116 -50.1376
rradius 12.695
rwrist 33.639
rhand -17.3679 -34.6352
rfingers 7.12502
rthumb 8.88032 -64.4283
lclavicle -7.37367e-015 2.14687e-014
lhumerus -33.9468 2.84487 86.8765
lradius 34.34
lwrist 7.19276
lhand -22.0114 -17.5669
lfingers 7.12502
lthumb 4.39778 12.3674
rfemur -33.0274 -1.53907 25.0523
rtibia 37.4904
rfoot -21.1778 1.55992
rtoes -13.749
lfemur -35.9763 2.6128 -19.1679
ltibia 73.8948
lfoot -3.48897 2.25495
ltoes -3.39895
261
root -0.196786 16.4143 10.8238 16.4039 3.36205 -0.740717
lowerback -14.7749 -0.645284 2.42893
upperback -4.8848 -1.29511 2.437
thorax 3.11731 -0.635723 0.959032
lowerneck -4.46653 0.343111 0.555142
upperneck 8.92749 0.744236 -3.54857
head 3.71151 0.237532 -1.23739
rclavicle 1.8612e-014 -2.70347e-014
rhumerus -46.8273 -38.8603 -57.0077
rradius 13.7478
rwrist 28.5431
rhand -17.5764 -35.3803
rfingers 7.12502
rthumb 8.67914 -65.1818
lclavicle 1.8612e-014 -2.70347e-014
lhumerus -34.3179 3.63542 86.6203
lradius 31.8492
lwrist 5.86764
lhand -22.222 -17.7109
lfingers 7.12502
lthumb 4.19442 12.2276
rfemur -31.9303 -1.73209 24.4566
rtibia 37.2228
rfoot -21.817 1.58355
rtoes -12.685
lfemur -37.0924 2.48644 -19.9059
ltibia 73.1609
lfoot -5.0323 2.7191
ltoes -2.24334
262
root -0.201942 16.4168 11.0245 16.2843 3.36972 -0.706288
lowerback -14.5398 -0.640262 2.2691
upperback -5.01375 -1.24984 2.38766
thorax 2.85812 -0.615311 1.00851
lowerneck -4.18021 0.283666 0.499089
upperneck 9.1384 0.665523 -3.46157
head 3.72635 0.200855 -1.20277
rclavicle 1.42597e-014 -2.38542e-015
rhumerus -42.6507 -34.2028 -63.1999
rradius 15.0586
rwrist 22.9346
rhand -17.9233 -36.0015
rfingers 7.12502
rthumb 8.34434 -65.8167
lclavicle 1.42597e-014 -2.38542e-015
lhumerus -35.2203 4.7021 86.1656
lradius 29.729
lwrist 4.34755
lhand -22.2752 -18.5334
lfingers 7.12502
lthumb 4.14307 11.4061
rfemur -30.8181 -1.71559 24.4317
rtibia 36.9947
rfoot -22.3504 1.56198
rtoes -11.8328
lfemur -38.2568 2.70693 -20.1178
ltibia 72.2847
lfoot -6.57053 3.13483
ltoes -2.82382
263
root -0.213097 16.418 11.2279 16.0988 3.45695 -0.831803
lowerback -14.4167 -0.663822 2.1507
upperback -5.0543 -1.25956 2.4224
thorax 2.75297 -0.620108 1.11165
lowerneck -3.74801 0.274212 0.380533
upperneck 9.16094 0.645534 -3.30563
head 3.64695 0.196931 -1.12899
rclavicle 1.78533e-014 -4.13472e-014
rhumerus -39.5357 -29.9918 -67.7514
rradius 16.0492
rwrist 18.067
rhand -18.4511 -34.4992
rfingers 7.12502
rthumb 7.83499 -64.334
lclavicle 1.78533e-014 -4.13472e-014
lhumerus -35.9089 6.06422 85.4688
lradius 27.3566
lwrist 2.25037
lhand -22.0828 -19.4066
lfingers 7.12502
lthumb 4.32883 10.5292
rfemur -29.6446 -1.69356 24.6526
rtibia 36.7669
rfoot -22.9683 1.18051
rtoes -12.3356
lfemur -39.3661 2.91906 -20.0857
ltibia 71.2509
lfoot -7.98173 3.38917
ltoes -4.0533
264
root -0.219445 16.4094 11.4287 15.9967 3.57415 -0.952094
lowerback -14.4123 -0.629616 2.09937
upperback -4.95594 -1.20969 2.40881
thorax 2.85459 -0.594139 1.13397
lowerneck -3.76795 0.222077 0.389246
upperneck 9.17604 0.570139 -3.2478
head 3.65397 0.162029 -1.11479
rclavicle -8.89872e-015 7.15625e-015
rhumerus -36.9613 -26.6793 -71.189
rradius 17.0392
rwrist 13.9489
rhand -19.0027 -32.098
rfingers 7.12502
rthumb 7.30257 -61.952
lclavicle -8.89872e-015 7.15625e-015
lhumerus -36.0527 7.84536 84.475
lradius 24.5062
lwrist -0.847653
lhand -21.6821 -19.6154
lfingers 7.12502
lthumb 4.71569 10.3121
rfemur -28.6299 -1.83974 24.8878
rtibia 36.5689
rfoot -23.5227 0.940992
rtoes -12.6633
lfemur -40.4409 3.06221 -20.0787
ltibia 70.087
lfoot -8.61643 3.77581
ltoes -3.02627
265
root -0.209685 16.3983 11.6296 16.109 3.74973 -1.04553
lowerback -14.4491 -0.554062 2.2839
upperback -5.02721 -1.13031 2.32124
thorax 2.79331 -0.556339 0.951436
lowerneck -3.62065 0.142299 0.452884
upperneck 9.09988 0.454933 -3.2414
head 3.59641 0.109443 -1.12742
rclavicle -1.35608e-014 4.77083e-015
rhumerus -34.9603 -23.3522 -74.0987
rradius 18.4734
rwrist 10.195
rhand -19.0408 -31.757
rfingers 7.12502
rthumb 7.26574 -61.6123
lclavicle -1.35608e-014 4.77083e-015
lhumerus -36.6025 9.72678 83.2256
lradius 22.0229
lwrist -4.28842
lhand -20.64 -18.3801
lfingers 7.12502
lthumb 5.72193 11.5227
rfemur -27.8979 -2.63315 25.1301
rtibia 36.5091
rfoot -24.2882 1.15133
rtoes -13.7201
lfemur -41.6493 3.08405 -20.2346
ltibia 68.7668
lfoot -8.69352 4.63011
ltoes -2.4407
266
root -0.22124 16.3752 11.8298 16.2256 3.37423 -0.936709
lowerback -14.5245 -0.455811 1.81899
upperback -5.0867 -0.935713 2.27899
thorax 2.77848 -0.457851 1.20135
lowerneck -3.29275 0.114336 0.273032
upperneck 8.94774 0.405385 -3.03567
head 3.47606 0.0910517 -1.0266
rclavicle 6.11263e-015 -1.35174e-014
rhumerus -33.1121 -19.9527 -76.6163
rradius 20.159
rwrist 7.13448
rhand -18.5007 -33.4424
rfingers 7.12502
rthumb 7.78709 -63.279
lclavicle 6.11263e-015 -1.35174e-014
lhumerus -37.4802 11.8437 81.7278
lradius 20.0054
lwrist -7.84554
lhand -19.422 -17.4302
lfingers 7.12502
lthumb 6.89777 12.4374
rfemur -27.2619 -2.45472 25.0461
rtibia 36.5768
rfoot -24.9414 0.836189
rtoes -15.0896
lfemur -42.902 3.55305 -20.6398
ltibia 67.2898
lfoot -9.0194 5.39631
ltoes -2.08569
